# xmcd
#
# Track frame offsets:
#	150
#	14516
#	26083
#	38072
#	50970
#	64931
#	76697
#	89297
#	103093
#	117709
#	131649
#	145376
#	157304
#	170711
#	182882
#	196157
#	209010
#	221585
#	235647
#	246741
#	259736
#	270984
#	283155
#	294199
#
# Disc length: 4085 seconds
#
# Revision: 1
# Processed by: cddbd v1.5.2PL0 Copyright (c) Steve Scherf et al.
# Submitted via: audiograbber 1.83.01
#
DISCID=7d0ff318
DTITLE=The Greatest Country Music Recordings Of All Time - Record 43 and 44
DYEAR=1900
DGENRE=
TTITLE0=Ernest Tubb - The Passing Of Jimmie Rodgers
TTITLE1=Ernest Tubb - Married Man Blues
TTITLE2=Ernest Tubb - Mean Old Bed Bug Blues
TTITLE3=Ernest Tubb - Blue Eyed Elaine
TTITLE4=Ernest Tubb - I'll Get Along Somehow
TTITLE5=Ernest Tubb - Walking The Floor Over You
TTITLE6=Ernest Tubb - You Nearly Lose Your Mind
TTITLE7=Ernest Tubb - Tomorrow Never Comes
TTITLE8=Ernest Tubb - Seaman's Blues
TTITLE9=Ernest Tubb - Letters Have No Arms
TTITLE10=Ernest Tubb - Goodnight Irene (with Red Foley)
TTITLE11=Ernest Tubb - Waltz Across Texas
TTITLE12=Jimmie Davis - I Wish I Had Never Seen Sunshine
TTITLE13=Tex Ritter - You Two-Timed Me One Time Too Often
TTITLE14=Eddy Arnold - Many Tears Ago
TTITLE15=Elton Britt - Detour
TTITLE16=Bill Nettles - Hadacol Boogie
TTITLE17=Lefty Frizzell - I Want To Be With You Always
TTITLE18=Hank Snow - Music Makin' Mama From Memphis
TTITLE19=Carl Smith - Mr. Moon
TTITLE20=Carl Smith - It's A Lovely Lovely World
TTITLE21=Ray Price - Talk To Your Heart
TTITLE22=Johnnie And Jack - Slow Poison
TTITLE23=Kitty Wells - The Life They Live In Songs
EXTD=
EXTT0=
EXTT1=
EXTT2=
EXTT3=
EXTT4=
EXTT5=
EXTT6=
EXTT7=
EXTT8=
EXTT9=
EXTT10=
EXTT11=
EXTT12=
EXTT13=
EXTT14=
EXTT15=
EXTT16=
EXTT17=
EXTT18=
EXTT19=
EXTT20=
EXTT21=
EXTT22=
EXTT23=
PLAYORDER=
